<svg width="100%" height="auto" viewBox="0 0 115 94" fill="none" xmlns="http://www.w3.org/2000/svg">
<path d="M40.1 78.6C32.2 75.2 24.3 71.7 16.5 68.3C22 51.5 27.5 34.7333 33 18L45.3 10.5C43.6 33.2 41.8 55.9 40.1 78.6Z" fill="#E5E5E5"/>
<path d="M14.3 62.7C9.5 60.7 4.8 58.7 0 56.7L18.6 29.1L28.2 22.2C23.6 35.7 18.9 49.2 14.3 62.7Z" fill="#E5E5E5"/>
<path d="M48.1 0L43.9 82.9L69.3 94L55 6L48.1 0Z" fill="#E5E5E5"/>
<path d="M71.1 83.7C79.5 87 88 90.3 96.4 93.6C87.6 70.4 78.7 47.2 69.9 24C66.4 19.9 62.9 15.9 59.4 11.8C63.3 35.8 67.2 59.7667 71.1 83.7Z" fill="#E5E5E5"/>
<path d="M78.1 37.2C84.6 53.2 91 69.3 97.5 85.3C103.1 87.7 108.7 90 114.3 92.4C106.2 77.4 98.0667 62.3667 89.9 47.3C86 44 82.1 40.6 78.1 37.2Z" fill="#E5E5E5"/>
</svg>
