<svg width="30" height="31" viewBox="0 0 30 31" fill="none" xmlns="http://www.w3.org/2000/svg">
<path d="M28.9398 28.1184H2.12037V1.29589C2.12187 1.1562 2.09543 1.01762 2.0426 0.8883C1.98976 0.758979 1.91161 0.641528 1.81273 0.542851C1.71385 0.444175 1.59623 0.366265 1.46681 0.313703C1.33738 0.261141 1.19875 0.234987 1.05907 0.236781C0.919576 0.235287 0.781188 0.261662 0.652021 0.314358C0.522854 0.367054 0.405508 0.445011 0.306865 0.543657C0.208222 0.642303 0.130268 0.759653 0.0775734 0.888825C0.0248791 1.018 -0.0014946 1.15639 -9.62857e-07 1.29589V29.1775C-0.0014946 29.317 0.0248791 29.4554 0.0775734 29.5846C0.130268 29.7138 0.208222 29.8311 0.306865 29.9298C0.405508 30.0284 0.522854 30.1064 0.652021 30.1591C0.781188 30.2118 0.919576 30.2381 1.05907 30.2366H28.9398C29.2209 30.2366 29.4906 30.1249 29.6894 29.9261C29.8882 29.7273 29.9999 29.4576 29.9999 29.1764C29.9999 28.8952 29.8882 28.6255 29.6894 28.4267C29.4906 28.2279 29.2209 28.1162 28.9398 28.1162V28.1184Z" fill="#E5E5E5"/>
<path d="M12.3886 24.3475V3.74235C12.4199 3.56695 12.4123 3.3868 12.3665 3.21462C12.3207 3.04244 12.2376 2.8824 12.1233 2.74579C12.0089 2.60917 11.8659 2.4993 11.7045 2.42391C11.5431 2.34852 11.367 2.30945 11.1889 2.30945C11.0107 2.30945 10.8347 2.34852 10.6733 2.42391C10.5118 2.4993 10.3689 2.60917 10.2545 2.74579C10.1401 2.8824 10.0571 3.04244 10.0112 3.21462C9.9654 3.3868 9.95787 3.56695 9.98919 3.74235V24.3475C9.95787 24.5229 9.9654 24.7031 10.0112 24.8752C10.0571 25.0474 10.1401 25.2075 10.2545 25.3441C10.3689 25.4807 10.5118 25.5906 10.6733 25.666C10.8347 25.7413 11.0107 25.7804 11.1889 25.7804C11.367 25.7804 11.5431 25.7413 11.7045 25.666C11.8659 25.5906 12.0089 25.4807 12.1233 25.3441C12.2376 25.2075 12.3207 25.0474 12.3665 24.8752C12.4123 24.7031 12.4199 24.5229 12.3886 24.3475Z" fill="#E5E5E5"/>
<path d="M7.40711 24.3475V3.74235C7.43843 3.56695 7.4309 3.3868 7.38506 3.21462C7.33923 3.04244 7.25619 2.8824 7.14181 2.74579C7.02743 2.60917 6.88449 2.4993 6.72305 2.42391C6.56161 2.34852 6.3856 2.30945 6.20743 2.30945C6.02925 2.30945 5.85325 2.34852 5.69181 2.42391C5.53037 2.4993 5.38742 2.60917 5.27304 2.74579C5.15866 2.8824 5.07563 3.04244 5.02979 3.21462C4.98395 3.3868 4.97642 3.56695 5.00774 3.74235V24.3475C4.97642 24.5229 4.98395 24.7031 5.02979 24.8752C5.07563 25.0474 5.15866 25.2075 5.27304 25.3441C5.38742 25.4807 5.53037 25.5906 5.69181 25.666C5.85325 25.7413 6.02925 25.7804 6.20743 25.7804C6.3856 25.7804 6.56161 25.7413 6.72305 25.666C6.88449 25.5906 7.02743 25.4807 7.14181 25.3441C7.25619 25.2075 7.33923 25.0474 7.38506 24.8752C7.4309 24.7031 7.43843 24.5229 7.40711 24.3475Z" fill="#E5E5E5"/>
<path d="M22.3519 24.3475V3.74235C22.3833 3.56695 22.3757 3.3868 22.3299 3.21462C22.2841 3.04244 22.201 2.8824 22.0866 2.74579C21.9723 2.60917 21.8293 2.4993 21.6679 2.42391C21.5064 2.34852 21.3304 2.30945 21.1523 2.30945C20.9741 2.30945 20.7981 2.34852 20.6366 2.42391C20.4752 2.4993 20.3323 2.60917 20.2179 2.74579C20.1035 2.8824 20.0205 3.04244 19.9746 3.21462C19.9288 3.3868 19.9212 3.56695 19.9526 3.74235V24.3475C19.9212 24.5229 19.9288 24.7031 19.9746 24.8752C20.0205 25.0474 20.1035 25.2075 20.2179 25.3441C20.3323 25.4807 20.4752 25.5906 20.6366 25.666C20.7981 25.7413 20.9741 25.7804 21.1523 25.7804C21.3304 25.7804 21.5064 25.7413 21.6679 25.666C21.8293 25.5906 21.9723 25.4807 22.0866 25.3441C22.201 25.2075 22.2841 25.0474 22.3299 24.8752C22.3757 24.7031 22.3833 24.5229 22.3519 24.3475Z" fill="#E5E5E5"/>
<path d="M26.4924 22.7102V12.4595C26.5227 12.2846 26.5144 12.1053 26.4681 11.9339C26.4217 11.7626 26.3385 11.6035 26.2242 11.4677C26.1099 11.3319 25.9673 11.2227 25.8064 11.1479C25.6455 11.073 25.4702 11.0342 25.2927 11.0342C25.1153 11.0342 24.9399 11.073 24.779 11.1479C24.6181 11.2227 24.4755 11.3319 24.3612 11.4677C24.247 11.6035 24.1637 11.7626 24.1174 11.9339C24.0711 12.1053 24.0628 12.2846 24.0931 12.4595V22.7091C24.0628 22.884 24.0711 23.0634 24.1174 23.2347C24.1637 23.406 24.247 23.5651 24.3612 23.7009C24.4755 23.8367 24.6181 23.9459 24.779 24.0207C24.9399 24.0956 25.1153 24.1344 25.2927 24.1344C25.4702 24.1344 25.6455 24.0956 25.8064 24.0207C25.9673 23.9459 26.1099 23.8367 26.2242 23.7009C26.3385 23.5651 26.4217 23.406 26.4681 23.2347C26.5144 23.0634 26.5227 22.884 26.4924 22.7091V22.7102Z" fill="#E5E5E5"/>
<path d="M17.3703 22.7102V12.4595C17.4006 12.2846 17.3923 12.1053 17.346 11.9339C17.2997 11.7626 17.2164 11.6035 17.1022 11.4677C16.9879 11.3319 16.8453 11.2227 16.6844 11.1479C16.5235 11.073 16.3481 11.0342 16.1707 11.0342C15.9932 11.0342 15.8179 11.073 15.657 11.1479C15.496 11.2227 15.3535 11.3319 15.2392 11.4677C15.1249 11.6035 15.0417 11.7626 14.9953 11.9339C14.949 12.1053 14.9407 12.2846 14.971 12.4595V22.7091C14.9407 22.884 14.949 23.0634 14.9953 23.2347C15.0417 23.406 15.1249 23.5651 15.2392 23.7009C15.3535 23.8367 15.496 23.9459 15.657 24.0207C15.8179 24.0956 15.9932 24.1344 16.1707 24.1344C16.3481 24.1344 16.5235 24.0956 16.6844 24.0207C16.8453 23.9459 16.9879 23.8367 17.1022 23.7009C17.2164 23.5651 17.2997 23.406 17.346 23.2347C17.3923 23.0634 17.4006 22.884 17.3703 22.7091V22.7102Z" fill="#E5E5E5"/>
</svg>
