<svg width="30" height="31" viewBox="0 0 30 31" fill="none" xmlns="http://www.w3.org/2000/svg">
<path d="M6.23117 19.5687H10.7912C11.5724 19.5687 12.1762 18.6927 12.1762 17.5744C12.1762 16.4561 11.568 15.6292 10.7912 15.6292H6.23117C5.44996 15.6292 4.84619 16.5052 4.84619 17.6235C4.84619 18.7418 5.4879 19.5687 6.23117 19.5687Z" fill="#E5E5E5"/>
<path d="M28.942 0.236816H1.08509C0.491369 0.236816 0.0259894 0.906434 0.0259894 1.75685V11.213C-0.00866314 11.4348 -0.00866314 11.6607 0.0259894 11.8826V28.7168C0.0259894 29.5694 0.490253 30.2368 1.08397 30.2368H28.942C29.5357 30.2368 30 29.5672 30 28.7168V1.75685C30 0.941031 29.5357 0.236816 28.942 0.236816ZM27.884 27.9668H2.14308V12.3602H27.8829L27.884 27.9668ZM27.884 10.0635H2.14308V2.51352H27.8829L27.884 10.0635Z" fill="#E5E5E5"/>
</svg>
