<svg width="30" height="31" viewBox="0 0 30 31" fill="none" xmlns="http://www.w3.org/2000/svg">
<path d="M28.9399 28.1233H2.10889V1.30072C2.11068 1.16152 2.08466 1.02336 2.03236 0.894351C1.98006 0.765339 1.90253 0.648071 1.80431 0.549424C1.7061 0.450777 1.58918 0.372737 1.46042 0.31988C1.33165 0.267024 1.19363 0.240416 1.05444 0.241616C0.91526 0.240416 0.777238 0.267024 0.648472 0.31988C0.519706 0.372737 0.402788 0.450777 0.304575 0.549424C0.206362 0.648071 0.128831 0.765339 0.0765291 0.894351C0.0242271 1.02336 -0.00179304 1.16152 -5.30342e-06 1.30072V29.1824C-0.00179304 29.3216 0.0242271 29.4598 0.0765291 29.5888C0.128831 29.7178 0.206362 29.8351 0.304575 29.9337C0.402788 30.0324 0.519706 30.1104 0.648472 30.1633C0.777238 30.2161 0.91526 30.2427 1.05444 30.2415H28.9399C29.221 30.2415 29.4906 30.1298 29.6894 29.931C29.8882 29.7322 29.9999 29.4625 29.9999 29.1813C29.9999 28.9001 29.8882 28.6304 29.6894 28.4316C29.4906 28.2328 29.221 28.1211 28.9399 28.1211V28.1233Z" fill="#E5E5E5"/>
<path d="M28.9175 0.241636H5.40046C5.25865 0.240143 5.11796 0.26698 4.98664 0.320574C4.85533 0.374167 4.73603 0.45344 4.63575 0.553744C4.53546 0.654049 4.4562 0.773367 4.40262 0.904705C4.34904 1.03604 4.32221 1.17676 4.3237 1.3186V24.7083C4.32221 24.8501 4.34904 24.9908 4.40262 25.1222C4.4562 25.2535 4.53546 25.3728 4.63575 25.4731C4.73603 25.5734 4.85533 25.6527 4.98664 25.7063C5.11796 25.7599 5.25865 25.7867 5.40046 25.7852H28.9175C29.0593 25.7867 29.2 25.7599 29.3313 25.7063C29.4626 25.6527 29.5819 25.5734 29.6822 25.4731C29.7825 25.3728 29.8617 25.2535 29.9153 25.1222C29.9689 24.9908 29.9957 24.8501 29.9942 24.7083V1.3186C29.9928 1.03342 29.8789 0.760345 29.6772 0.558692C29.4756 0.357039 29.2026 0.243102 28.9175 0.241636ZM27.8407 23.657H6.47834V2.39668H27.8407V23.657Z" fill="#E5E5E5"/>
</svg>
