<svg width="30" height="31" viewBox="0 0 30 31" fill="none" xmlns="http://www.w3.org/2000/svg">
<path d="M17.7361 14.7238C20.0481 14.7238 21.9224 12.8493 21.9224 10.537C21.9224 8.22462 20.0481 6.3501 17.7361 6.3501C15.4242 6.3501 13.5499 8.22462 13.5499 10.537C13.5499 12.8493 15.4242 14.7238 17.7361 14.7238Z" fill="#E5E5E5"/>
<path d="M0.0257287 29.9399C0.0257287 29.9656 0.0257286 29.9656 0.0513972 29.9656C0.0770658 30.017 0.102734 30.0951 0.128403 30.1464C0.128403 30.1721 0.154072 30.1721 0.154072 30.1978C0.154072 30.2234 0.17974 30.2234 0.17974 30.2491L0.205409 30.2748C0.231077 30.3261 0.282415 30.3518 0.309199 30.4043L0.334868 30.4277L0.386205 30.4791C0.393013 30.4791 0.399541 30.4818 0.404355 30.4866C0.409169 30.4914 0.411873 30.4979 0.411873 30.5047C0.437542 30.5304 0.463211 30.5304 0.488879 30.5561L0.514548 30.5817C0.521356 30.5817 0.527884 30.5844 0.532698 30.5893C0.537512 30.5941 0.540216 30.6006 0.540216 30.6074C0.565885 30.6331 0.617222 30.6331 0.644007 30.6588C0.669675 30.6588 0.669675 30.6588 0.695344 30.6844C0.71479 30.6872 0.732811 30.6962 0.746681 30.7101C0.82213 30.7313 0.900553 30.74 0.978814 30.7358H28.9408C29.0803 30.7373 29.2187 30.7109 29.3479 30.6582C29.4771 30.6055 29.5944 30.5275 29.6931 30.4289C29.7917 30.3302 29.8697 30.2128 29.9224 30.0836C29.9751 29.9544 30.0014 29.816 29.9999 29.6765V1.79615C30.0014 1.65663 29.9751 1.51821 29.9224 1.38902C29.8697 1.25983 29.7917 1.14246 29.6931 1.0438C29.5944 0.945139 29.4771 0.86717 29.3479 0.814466C29.2187 0.761761 29.0803 0.735383 28.9408 0.736876H1.05917C0.919669 0.735383 0.781276 0.761761 0.652104 0.814466C0.522933 0.86717 0.405583 0.945139 0.306937 1.0438C0.208291 1.14246 0.130333 1.25983 0.0776372 1.38902C0.024941 1.51821 -0.00143362 1.65663 6.00744e-05 1.79615V29.6307C6.00744e-05 29.7078 0.0257287 29.8116 0.0257287 29.8897V29.9399ZM27.9587 28.6005H4.5992L21.8608 17.3024L27.9587 23.1177V28.6005ZM2.12051 2.85765H27.9587V20.1978L22.7134 15.1838C22.5383 15.0207 22.3144 14.9197 22.0763 14.8963C21.8381 14.8729 21.5989 14.9284 21.3954 15.0543L16.4603 18.3103L13.0241 14.8501C12.8555 14.6772 12.633 14.567 12.3933 14.5378C12.1537 14.5086 11.9112 14.562 11.7061 14.6893L2.12051 20.7402V2.85765ZM2.12051 23.2483L12.1201 16.9429L14.6524 19.5013L2.12051 27.6919V23.2483Z" fill="#E5E5E5"/>
</svg>
