<svg height="auto" viewBox="0 0 115 94" fill="none" xmlns="http://www.w3.org/2000/svg"><path d="M40.1 78.6c-7.9-3.4-15.8-6.9-23.6-10.3C22 51.5 27.5 34.733 33 18l12.3-7.5c-1.7 22.7-3.5 45.4-5.2 68.1zM14.3 62.7c-4.8-2-9.5-4-14.3-6l18.6-27.6 9.6-6.9c-4.6 13.5-9.3 27-13.9 40.5zM48.1 0l-4.2 82.9L69.3 94 55 6l-6.9-6zm23 83.7c8.4 3.3 16.9 6.6 25.3 9.9C87.6 70.4 78.7 47.2 69.9 24c-3.5-4.1-7-8.1-10.5-12.2 3.9 24 7.8 47.967 11.7 71.9zm7-46.5c6.5 16 12.9 32.1 19.4 48.1 5.6 2.4 11.2 4.7 16.8 7.1-8.1-15-16.233-30.033-24.4-45.1-3.9-3.3-7.8-6.7-11.8-10.1z" fill="#E5E5E5"/></svg>