<svg width="30" height="31" fill="none" xmlns="http://www.w3.org/2000/svg"><path d="M17.736 14.724a4.187 4.187 0 100-8.373 4.187 4.187 0 000 8.373z" fill="#E5E5E5"/><path d="M.026 29.94c0 .026 0 .026.025.026.026.051.052.13.077.18 0 .026.026.026.026.052 0 .025.026.025.026.051l.025.026c.026.051.077.077.104.13l.026.023.051.051a.026.026 0 01.026.026c.026.025.051.025.077.051l.026.026c.006 0 .013.002.018.007a.026.026 0 01.007.018c.026.026.077.026.104.052.026 0 .026 0 .051.025a.09.09 0 01.052.026c.075.021.154.03.232.026H28.94a1.048 1.048 0 001.06-1.06V1.797a1.048 1.048 0 00-1.06-1.06H1.06A1.048 1.048 0 000 1.797v27.835c0 .077.026.18.026.259v.05zm27.933-1.34H4.599l17.262-11.298 6.098 5.816V28.6zM2.12 2.858h25.838v17.34l-5.246-5.014a1.091 1.091 0 00-1.318-.13L16.46 18.31l-3.436-3.46a1.06 1.06 0 00-1.318-.16l-9.585 6.05V2.858zm0 20.39l10-6.305 2.531 2.558-12.531 8.19v-4.443z" fill="#E5E5E5"/></svg>