<svg width="30" height="31" fill="none" xmlns="http://www.w3.org/2000/svg"><path d="M28.94 28.118H2.12V1.296A1.048 1.048 0 001.06.236 1.048 1.048 0 000 1.297v27.881a1.048 1.048 0 001.06 1.06h27.88a1.06 1.06 0 000-2.12v.001z" fill="#E5E5E5"/><path d="M12.389 24.348V3.741a1.22 1.22 0 10-2.4 0v20.606a1.22 1.22 0 102.4 0zm-4.982 0V3.741a1.219 1.219 0 10-2.4 0v20.606a1.218 1.218 0 102.4 0zm14.945 0V3.741a1.218 1.218 0 10-2.4 0v20.606a1.218 1.218 0 102.4 0zm4.14-1.638V12.46a1.218 1.218 0 10-2.399 0v10.25a1.218 1.218 0 102.4 0zm-9.122 0V12.46a1.218 1.218 0 10-2.399 0v10.25a1.218 1.218 0 102.4 0z" fill="#E5E5E5"/></svg>