<svg width="30" height="31" fill="none" xmlns="http://www.w3.org/2000/svg"><path d="M6.231 19.569h4.56c.781 0 1.385-.876 1.385-1.995 0-1.118-.608-1.945-1.385-1.945h-4.56c-.781 0-1.385.876-1.385 1.995 0 1.118.642 1.945 1.385 1.945z" fill="#E5E5E5"/><path d="M28.942.237H1.085C.491.237.026.907.026 1.757v9.456a2.17 2.17 0 000 .67v16.834c0 .852.464 1.52 1.058 1.52h27.858c.594 0 1.058-.67 1.058-1.52V1.757c0-.816-.464-1.52-1.058-1.52zm-1.058 27.73H2.144V12.36h25.739l.001 15.607zm0-17.904H2.144v-7.55h25.739l.001 7.55z" fill="#E5E5E5"/></svg>